<svg width="127" height="49" viewBox="0 0 127 49" fill="none" xmlns="http://www.w3.org/2000/svg">
<g style="mix-blend-mode:luminosity" clip-path="url(#clip0_825_4962)">
<path fill-rule="evenodd" clip-rule="evenodd" d="M125.59 31.0946C120.335 38.9919 112.011 36.7003 109.512 34.9062C108.448 35.5459 106.582 36.9482 104.095 36.7863C98.797 36.4416 96.8999 29.7319 96.8999 29.7319C96.938 29.7588 95.3218 30.2262 94.4484 30.2178C94.4372 32.1855 92.5181 36.8859 87.3387 36.8257C81.5268 36.7586 80.3452 29.0844 80.3452 29.0844C80.3452 29.0844 79.7669 29.7962 77.5678 30.5051C77.6785 28.9934 77.5975 36.5956 70.6317 36.7074C65.1247 36.7958 63.6382 28.966 63.6382 28.966C63.6382 28.966 62.6828 29.8456 60.8314 30.1506C60.949 28.6143 60.7577 36.7332 53.791 36.7074C49.083 36.6901 47.4742 31.8842 47.5993 31.2172C47.759 30.3671 46.0082 36.8269 41.435 36.7263C39.5478 36.6772 38.1409 35.4661 37.258 33.8516C36.0762 35.0502 34.3603 36.7263 32.4354 36.7263C28.9801 36.7263 27.4568 34.1649 27.7148 26.8492C27.7368 25.9815 27.6661 25.6402 26.6929 25.5104C26.1087 25.424 25.5105 25.2605 24.8775 25.1742C24.6747 25.7743 22.954 36.5311 17.0371 36.7352C15.0521 36.8037 13.9667 35.2797 13.0753 34.1486C11.709 35.7507 9.90525 36.7863 7.33572 36.7863C2.98313 36.7863 0.0175781 33.6677 0.0175781 29.8208C0.0175781 25.9737 2.98313 22.8555 7.33572 22.8555C8.1053 22.8555 8.32134 22.9532 9.0244 23.135C7.57853 11.4677 10.9931 9.64428 13.9801 9.64428C16.8478 9.64428 21.7469 15.5433 14.8534 30.5063C16.3839 34.9694 19.6833 34.717 21.2688 25.5295C21.5915 23.6619 20.7287 21.1418 22.0708 20.79C24.5241 20.1472 24.7844 22.0759 25.9347 22.3972C27.151 22.7368 27.8609 22.7037 29.0285 22.9198C31.0238 23.2651 31.8024 24.2151 31.5593 26.3309C31.2674 29.008 30.7567 32.9045 32.3137 33.3794C33.4365 33.7243 35.4865 31.6606 35.8463 30.5314C36.2059 29.4022 36.281 29.0157 36.313 28.1875C36.3616 26.4174 36.4227 25.1198 36.7633 23.7811C36.909 23.2631 37.0752 22.9201 37.7365 22.8966C38.2806 22.8843 39.2756 22.7391 39.7137 23.0413C40.2975 23.4301 40.2245 23.8246 40.1575 24.8629C39.4785 39.6665 44.7045 32.2764 46.2627 26.3592C45.7078 19.6681 46.0888 9.7668 50.8196 9.60074C53.28 9.51438 54.3677 11.2613 54.4874 12.5652C54.8258 16.248 52.9302 22.3484 50.4372 26.451C49.0124 34.822 56.6668 36.4771 57.8909 29.7954C55.8882 28.9515 53.7238 25.5356 55.4851 23.871C56.4734 22.9367 60.5871 24.2788 60.6545 27.206C62.6724 26.7277 62.9418 25.7179 62.9698 25.8853C62.4151 19.1942 62.9295 9.76689 67.6607 9.60082C70.1208 9.51446 71.2084 11.2614 71.328 12.5653C71.6664 16.2481 69.7708 22.3485 67.2781 26.4511C65.8531 34.822 73.5078 36.4773 74.7315 29.7956C73.2488 29.542 70.1188 25.9088 71.9248 23.8711C72.8899 22.7822 76.9886 25.0466 77.4474 27.303C79.3859 26.8168 79.6492 25.8391 79.677 26.0036C79.1221 19.3128 79.6366 9.88547 84.3678 9.7194C86.8279 9.63304 87.9154 11.38 88.0351 12.6839C88.3735 16.3667 86.4779 22.4672 83.9849 26.5698C82.5602 34.9408 90.2147 36.5956 91.4388 29.9139C89.4012 29.6133 86.5054 25.777 88.836 23.8145C89.7672 23.0304 93.3253 25.0659 94.1582 27.388C95.3154 27.3486 96.0357 26.9948 96.1901 26.9592C94.3427 19.1043 95.718 9.67961 100.807 9.60094C103.558 9.55846 106.248 10.919 105.067 18.3918C103.94 25.5218 99.8902 28.514 99.8996 28.5598C100.135 29.4139 102.214 36.5625 107.447 32.7906C107.176 32.247 106.905 31.6915 106.753 31.0186C105.886 27.099 107.59 22.6717 112.221 21.9561C114.874 21.5462 117.374 22.6911 117.769 25.2722C118.419 29.4958 114.116 32.5545 112.48 33.218C111.747 32.849 119.123 37.0419 123.501 28.6392C123.755 28.1595 124.061 28.2001 124.457 28.4474C124.737 28.6221 126.332 29.9612 125.59 31.0946ZM10.5018 28.783C10.2791 28.1928 9.82198 26.8923 9.66034 26.3288C8.7701 25.6427 8.13467 25.5312 6.99198 25.5312C4.45254 25.5312 2.95788 27.6121 2.95788 29.856C2.95788 32.0997 4.5862 34.1809 7.12565 34.1809C9.32637 34.1809 11.0013 32.8547 11.5123 30.9774C11.1547 30.2455 10.7998 29.5729 10.5018 28.783ZM13.9179 12.7327C12.1335 12.7327 11.5282 16.5053 11.6457 19.7236C11.7496 22.569 12.6467 25.0741 13.1121 26.1965C13.2302 26.3372 13.2083 26.2456 13.3138 26.3948C16.412 20.3784 15.1269 12.7327 13.9179 12.7327ZM51.0745 12.8512C48.7683 12.6168 48.7832 21.1314 49.0695 23.0413C50.2672 21.3431 52.3479 13.3085 51.0745 12.8512ZM67.9151 12.8512C65.6089 12.6168 65.6238 21.1314 65.9102 23.0413C67.1078 21.3431 69.1886 13.3085 67.9151 12.8512ZM84.6223 12.9697C82.316 12.7353 82.3309 21.2499 82.6173 23.1599C83.8149 21.4616 85.8957 13.4269 84.6223 12.9697ZM101.062 12.3528C97.4688 12.9923 98.3055 23.6102 98.8513 25.4724C103.084 20.3202 103.171 12.1592 101.062 12.3528ZM114.528 25.6216C114.346 24.9446 113.432 24.5827 112.802 24.6719C110.997 24.8903 109.248 26.8817 109.925 29.9136C110.076 30.5889 110.453 31.2105 110.447 31.1898C114.485 28.789 114.828 26.8971 114.528 25.6216ZM38.4437 20.553C37.9281 20.5531 37.424 20.4177 36.9953 20.1638C36.5665 19.91 36.2322 19.5492 36.0348 19.127C35.8374 18.7048 35.7857 18.2402 35.8864 17.7919C35.9868 17.3437 36.2352 16.9319 36.5998 16.6088C36.9643 16.2856 37.4288 16.0655 37.9345 15.9763C38.4403 15.8871 38.9645 15.9329 39.4409 16.1078C39.9174 16.2827 40.3245 16.5789 40.6109 16.9589C40.8974 17.3389 41.0503 17.7856 41.0503 18.2426C41.0503 18.546 40.9829 18.8464 40.8519 19.1267C40.721 19.407 40.529 19.6617 40.2869 19.8763C40.0448 20.0908 39.7575 20.261 39.4413 20.3771C39.125 20.4933 38.7861 20.553 38.4437 20.553Z" fill="#0D0C22"/>
</g>
<defs>
<clipPath id="clip0_825_4962">
<rect width="126.369" height="48" fill="white" transform="translate(0.0175781 0.53125)"/>
</clipPath>
</defs>
</svg>
