<svg width="111" height="49" viewBox="0 0 111 49" fill="none" xmlns="http://www.w3.org/2000/svg">
<g style="mix-blend-mode:luminosity" clip-path="url(#clip0_825_4966)">
<path fill-rule="evenodd" clip-rule="evenodd" d="M90.3594 21.1285C90.7816 21.7741 90.9197 22.5087 90.9653 23.3345L91.0253 24.4352V32.1319L91.0865 33.2338C91.209 35.0332 92.7063 36.3638 94.7523 36.477L95.989 36.5313V24.4352L96.0503 23.3345C96.1011 22.5179 96.2379 21.7695 96.6667 21.1192C97.1035 20.4523 97.7307 19.8989 98.4852 19.5147C99.2397 19.1305 100.095 18.929 100.965 18.9304C101.835 18.9318 102.69 19.1361 103.443 19.5227C104.195 19.9094 104.82 20.4647 105.254 21.1331C105.677 21.7787 105.808 22.5272 105.859 23.3345L105.92 24.4317V32.1319L105.982 33.2338C106.109 35.0425 107.595 36.373 109.647 36.477L110.884 36.5313V23.3345C110.884 21.0009 109.838 18.7629 107.977 17.1125C106.116 15.4621 103.591 14.5345 100.958 14.5336C99.5487 14.5322 98.1554 14.7975 96.8711 15.3115C95.5868 15.8256 94.441 16.5767 93.5104 17.5146C92.5793 16.577 91.4335 15.8262 90.1493 15.3119C88.8651 14.7977 87.472 14.532 86.0628 14.5324C84.0013 14.5324 82.0882 15.0868 80.5036 16.0443C79.5366 15.088 77.3734 14.5324 76.1315 14.5324V36.5313L77.3734 36.477C79.4506 36.3557 80.9519 35.061 81.0327 33.2338L81.0991 32.1319V24.4352L81.1604 23.3345C81.2125 22.5041 81.3428 21.7741 81.7663 21.1239C82.2036 20.4573 82.8305 19.9041 83.5844 19.5194C84.3383 19.1348 85.1929 18.9321 86.0628 18.9317C86.9334 18.9319 87.7887 19.1349 88.5428 19.5205C89.2969 19.9061 89.9234 20.4606 90.3594 21.1285V21.1285ZM5.38951 36.4781L6.63142 36.5313H25.247L25.1858 35.434C25.0177 33.6253 23.5725 32.304 21.5252 32.1862L20.2833 32.1319H9.11524L24.0051 18.9306L23.9439 17.8345C23.8474 16.0073 22.341 14.6872 20.2833 14.5867L19.0414 14.537L0.425781 14.5324L0.48703 15.6331C0.649925 17.4245 2.11598 18.7735 4.1463 18.8774L5.38951 18.9317H16.5576L1.66769 32.1331L1.72894 33.2338C1.85144 35.0471 3.32792 36.3603 5.38951 36.477V36.4781ZM71.259 17.7525C72.4116 18.7739 73.326 19.9865 73.9498 21.3211C74.5736 22.6556 74.8947 24.0861 74.8947 25.5307C74.8947 26.9753 74.5736 28.4057 73.9498 29.7403C73.326 31.0749 72.4116 32.2875 71.259 33.3089C68.9302 35.3711 65.7729 36.5296 62.4809 36.5296C59.1889 36.5296 56.0316 35.3711 53.7028 33.3089C48.8564 29.0135 48.8564 22.0478 53.7028 17.7525C54.8544 16.7315 56.2217 15.9215 57.7265 15.3688C59.2313 14.8161 60.8442 14.5315 62.4731 14.5313C64.1046 14.5302 65.7204 14.8143 67.228 15.3673C68.7355 15.9202 70.1053 16.7311 71.259 17.7536V17.7525ZM67.747 20.8675C69.1429 22.1056 69.9271 23.7844 69.9271 25.5347C69.9271 27.2851 69.1429 28.9638 67.747 30.202C66.3499 31.4392 64.4558 32.1342 62.4809 32.1342C60.506 32.1342 58.6118 31.4392 57.2148 30.202C55.8189 28.9638 55.0347 27.2851 55.0347 25.5347C55.0347 23.7844 55.8189 22.1056 57.2148 20.8675C58.6118 19.6302 60.506 18.9352 62.4809 18.9352C64.4558 18.9352 66.3499 19.6302 67.747 20.8675V20.8675ZM36.4255 14.5313C38.0545 14.5316 39.6675 14.8164 41.1723 15.3693C42.6771 15.9222 44.0443 16.7324 45.1958 17.7536C50.0435 22.0478 50.0435 29.0147 45.1958 33.3089C42.8671 35.3711 39.7097 36.5296 36.4177 36.5296C33.1257 36.5296 29.9684 35.3711 27.6396 33.3089C22.7932 29.0135 22.7932 22.0478 27.6396 17.7525C28.7912 16.7315 30.1585 15.9215 31.6633 15.3688C33.1681 14.8161 34.781 14.5315 36.4099 14.5313H36.4255ZM41.6838 20.8651C43.0801 22.1034 43.8645 23.7823 43.8645 25.533C43.8645 27.2836 43.0801 28.9626 41.6838 30.2008C40.2868 31.438 38.3926 32.133 36.4177 32.133C34.4428 32.133 32.5487 31.438 31.1517 30.2008C29.7557 28.9627 28.9715 27.2839 28.9715 25.5336C28.9715 23.7832 29.7557 22.1045 31.1517 20.8663C32.5487 19.6291 34.4428 18.9341 36.4177 18.9341C38.3926 18.9341 40.2868 19.6291 41.6838 20.8663V20.8651Z" fill="#2D8CFF"/>
</g>
<defs>
<clipPath id="clip0_825_4966">
<rect width="110.573" height="48" fill="white" transform="translate(0.425781 0.53125)"/>
</clipPath>
</defs>
</svg>
