<svg width="147" height="49" viewBox="0 0 147 49" fill="none" xmlns="http://www.w3.org/2000/svg">
<g style="mix-blend-mode:luminosity" clip-path="url(#clip0_825_4964)">
<path d="M51.525 35.3057V20.7506H51.8176L63.7715 35.3057H67.5333V13.9314H63.3536V28.4498H63.061L51.1071 13.9314H47.3453V35.3057H51.525ZM79.3618 35.6357C84.879 35.6357 88.2646 32.4827 88.2646 27.2033C88.2646 21.9605 84.879 18.7709 79.3618 18.7709C73.8864 18.7709 70.4591 21.9605 70.4591 27.2033C70.5009 32.4827 73.8446 35.6357 79.3618 35.6357ZM79.3618 32.556C76.436 32.556 74.7642 30.6129 74.7642 27.2033C74.7642 23.8303 76.436 21.8505 79.3618 21.8505C82.2876 21.8505 83.9595 23.8303 83.9595 27.2033C83.9595 30.6129 82.2876 32.556 79.3618 32.556ZM92.0681 15.1413V19.2108H89.1423V22.1438H92.0681V30.9795C92.0681 34.1325 93.74 35.379 98.0033 35.379C98.7974 35.379 99.5916 35.3057 100.219 35.1957V32.336C99.717 32.3727 99.3826 32.4093 98.7974 32.4093C97.042 32.4093 96.2478 31.7128 96.2478 30.0996V22.1438H100.219V19.2108H96.2478V15.1413H92.0681ZM102.726 35.3057H106.906V19.1008H102.726V35.3057ZM104.816 16.4245C106.196 16.4245 107.324 15.4346 107.324 14.2247C107.324 12.9782 106.196 11.9883 104.816 11.9883C103.437 11.9883 102.308 12.9782 102.308 14.2247C102.308 15.4346 103.437 16.4245 104.816 16.4245ZM118.358 35.6357C123.876 35.6357 127.261 32.4827 127.261 27.2033C127.261 21.9605 123.876 18.7709 118.358 18.7709C112.883 18.7709 109.456 21.9605 109.456 27.2033C109.456 32.4827 112.799 35.6357 118.358 35.6357ZM118.358 32.556C115.433 32.556 113.761 30.6129 113.761 27.2033C113.761 23.8303 115.433 21.8505 118.358 21.8505C121.242 21.8505 122.956 23.8303 122.956 27.2033C122.914 30.6129 121.242 32.556 118.358 32.556ZM129.727 35.3057H133.907V25.8834C133.907 23.5003 135.495 21.9972 137.961 21.9972C140.511 21.9972 141.681 23.2437 141.681 25.7001V35.3057H145.861V24.8202C145.861 20.934 143.604 18.7709 139.508 18.7709C136.749 18.7709 134.91 19.8707 134.032 21.7039H133.74V19.1008H129.685C129.727 19.1008 129.727 35.3057 129.727 35.3057Z" fill="black"/>
<path fill-rule="evenodd" clip-rule="evenodd" d="M7.26912 12.5633C8.48563 13.4331 8.92564 13.3645 11.2034 13.2271L32.6605 12.0827C33.1264 12.0827 32.7381 11.6707 32.5828 11.6249L29.011 9.35883C28.338 8.90104 27.4062 8.35169 25.672 8.48903L4.91376 9.8395C4.16315 9.90817 4.00785 10.2515 4.31844 10.5033L7.26912 12.5633ZM8.56328 16.981V36.9406C8.56328 38.0164 9.15859 38.4055 10.5304 38.3369L34.1099 37.1237C35.4817 37.0551 35.637 36.3226 35.637 35.4528V15.6305C35.637 14.7607 35.2488 14.2801 34.4205 14.3487L9.77979 15.6305C8.87388 15.6992 8.56328 16.1112 8.56328 16.981ZM31.8322 18.0568C31.9875 18.6519 31.8322 19.27 31.1593 19.3386L30.0204 19.5446V34.2854C29.0368 34.7432 28.1309 35.0179 27.3544 35.0179C26.1379 35.0179 25.8273 34.6746 24.9214 33.6674L17.493 23.3443V33.3241L19.8483 33.7819C19.8483 33.7819 19.8483 34.995 17.9589 34.995L12.7305 35.2697C12.5752 34.995 12.7305 34.3312 13.2481 34.1939L14.6199 33.8505V20.6662L12.7305 20.5289C12.5752 19.9337 12.9634 19.064 14.0246 18.9953L19.6413 18.6519L27.3803 29.0895V19.8651L25.4132 19.6591C25.2579 18.9266 25.8791 18.3773 26.6297 18.3086L31.8322 18.0568ZM3.17958 8.00835L24.792 6.61209C27.4321 6.40609 28.1309 6.54342 29.7875 7.61923L36.6724 11.8996C37.8112 12.632 38.1995 12.838 38.1995 13.6392V37.1466C38.1995 38.6115 37.6042 39.4813 35.4817 39.6187L10.401 40.9692C8.79623 41.0378 8.04562 40.8318 7.21736 39.8933L2.11838 34.0565C1.21247 32.9807 0.824219 32.1796 0.824219 31.2411V10.3431C0.824219 9.12993 1.44541 8.14568 3.17958 8.00835Z" fill="black"/>
</g>
<defs>
<clipPath id="clip0_825_4964">
<rect width="145.551" height="48" fill="white" transform="translate(0.824219 0.53125)"/>
</clipPath>
</defs>
</svg>
