<svg width="125" height="49" viewBox="0 0 125 49" fill="none" xmlns="http://www.w3.org/2000/svg">
<g style="mix-blend-mode:luminosity">
<path fill-rule="evenodd" clip-rule="evenodd" d="M76.6508 38.3386C69.4708 43.029 59.0639 45.5316 50.1036 45.5316C37.54 45.5316 26.2295 41.4131 17.6726 34.5634C17.0003 34.0247 17.6027 33.2906 18.4094 33.7101C27.644 38.4721 39.062 41.3369 50.8566 41.3369C58.8111 41.3369 67.5615 39.8782 75.6074 36.8514C76.8229 36.3938 77.8394 37.5569 76.6508 38.3386Z" fill="#FF9900"/>
<path fill-rule="evenodd" clip-rule="evenodd" d="M79.6359 35.3118C78.7215 34.2726 73.5692 34.8208 71.2565 35.0639C70.552 35.1402 70.4444 34.5968 71.079 34.2059C75.1827 31.6462 81.9162 32.385 82.7015 33.243C83.4867 34.1058 82.4971 40.088 78.6409 42.9433C78.0493 43.3818 77.4846 43.1483 77.7481 42.5667C78.614 40.6505 80.5555 36.3557 79.6359 35.3118Z" fill="#FF9900"/>
<path fill-rule="evenodd" clip-rule="evenodd" d="M71.4182 16.1349V13.6467C71.4182 13.2701 71.7409 13.0175 72.1282 13.0175H84.6972C85.1006 13.0175 85.4233 13.2749 85.4233 13.6467V15.7774C85.4179 16.1349 85.0791 16.602 84.4767 17.3409L77.9636 25.5825C80.3838 25.5301 82.9385 25.8495 85.1328 26.9458C85.6276 27.1937 85.7621 27.5559 85.7998 27.9134V30.5685C85.7998 30.9308 85.348 31.355 84.8747 31.1357C81.0077 29.3387 75.8715 29.1433 71.5957 31.1548C71.1601 31.3645 70.7029 30.9451 70.7029 30.5828V28.0612C70.7029 27.656 70.7083 26.9649 71.1655 26.35L78.7112 16.7593H72.1443C71.7409 16.7593 71.4182 16.5067 71.4182 16.1349Z" fill="black"/>
<path fill-rule="evenodd" clip-rule="evenodd" d="M25.5684 31.6601H21.7444C21.3787 31.6363 21.0883 31.3932 21.0614 31.0833V13.6896C21.0614 13.3416 21.3895 13.0652 21.7982 13.0652H25.364C25.7351 13.0794 26.0309 13.3321 26.0578 13.6467V15.9204H26.1277C27.0582 13.723 28.8061 12.6981 31.1618 12.6981C33.5551 12.6981 35.0503 13.723 36.1259 15.9204C37.051 13.723 39.1539 12.6981 41.4074 12.6981C43.0101 12.6981 44.7635 13.2844 45.8337 14.6C47.0439 16.0634 46.7964 18.1894 46.7964 20.0532L46.7911 31.0309C46.7911 31.3789 46.463 31.6601 46.0543 31.6601H42.2357C41.8538 31.6363 41.5473 31.3646 41.5473 31.0309V21.8121C41.5473 21.078 41.6225 19.2476 41.4397 18.5516C41.1546 17.3838 40.2995 17.0549 39.1916 17.0549C38.2665 17.0549 37.2984 17.6031 36.9058 18.4801C36.5132 19.3572 36.5508 20.8254 36.5508 21.8121V31.0309C36.5508 31.3789 36.2228 31.6601 35.814 31.6601H31.9954C31.6082 31.6363 31.307 31.3646 31.307 31.0309L31.3016 21.8121C31.3016 19.872 31.662 17.0168 28.9459 17.0168C26.1976 17.0168 26.3052 19.8005 26.3052 21.8121V31.0309C26.3052 31.3789 25.9771 31.6601 25.5684 31.6601Z" fill="black"/>
<path fill-rule="evenodd" clip-rule="evenodd" d="M96.2442 12.6981C101.918 12.6981 104.989 17.0168 104.989 22.508C104.989 27.8134 101.596 32.0224 96.2442 32.0224C90.6723 32.0224 87.639 27.7037 87.639 22.3221C87.639 16.9071 90.71 12.6981 96.2442 12.6981ZM96.2765 16.2493C93.4583 16.2493 93.2808 19.6528 93.2808 21.7739C93.2808 23.8999 93.2431 28.4378 96.2442 28.4378C99.2077 28.4378 99.3475 24.777 99.3475 22.5461C99.3475 21.078 99.2776 19.3239 98.7774 17.932C98.3471 16.7212 97.492 16.2493 96.2765 16.2493Z" fill="black"/>
<path fill-rule="evenodd" clip-rule="evenodd" d="M112.347 31.6601H108.539C108.157 31.6363 107.851 31.3646 107.851 31.0309L107.845 13.6324C107.878 13.313 108.195 13.0652 108.582 13.0652H112.126C112.46 13.0794 112.734 13.2797 112.809 13.5514V16.2112H112.879C113.95 13.8326 115.45 12.6981 118.091 12.6981C119.807 12.6981 121.479 13.2463 122.555 14.7478C123.555 16.1397 123.555 18.4801 123.555 20.1628V31.1119C123.512 31.417 123.195 31.6601 122.818 31.6601H118.984C118.634 31.6363 118.344 31.4075 118.306 31.1119V21.6643C118.306 19.7624 118.553 16.9786 115.913 16.9786C114.982 16.9786 114.127 17.5316 113.702 18.3705C113.164 19.4335 113.095 20.4917 113.095 21.6643V31.0309C113.089 31.3789 112.756 31.6601 112.347 31.6601Z" fill="black"/>
<path fill-rule="evenodd" clip-rule="evenodd" d="M61.3985 23.3517C61.3985 24.6721 61.4362 25.7732 60.6832 26.9458C60.0755 27.8991 59.1074 28.4855 58.0371 28.4855C56.5688 28.4855 55.7083 27.494 55.7083 26.0306C55.7083 23.142 58.6287 22.6176 61.3985 22.6176V23.3517ZM65.2548 31.6124C65.002 31.8126 64.6363 31.8269 64.3512 31.6935C63.0819 30.7592 62.8507 30.3254 62.1569 29.434C60.0593 31.3312 58.5696 31.8984 55.8535 31.8984C52.6319 31.8984 50.131 30.1395 50.131 26.6169C50.131 23.8665 51.8091 21.9932 54.2078 21.078C56.2838 20.2676 59.1827 20.1246 61.3985 19.9006V19.4621C61.3985 18.6565 61.4685 17.7031 60.9306 17.0072C60.4681 16.3828 59.5753 16.1254 58.7847 16.1254C57.3272 16.1254 56.031 16.7879 55.7137 18.1607C55.6492 18.4658 55.3964 18.7661 55.0468 18.7804L51.3412 18.4277C51.0292 18.3657 50.6796 18.1417 50.7711 17.7174C51.6208 13.7325 55.6868 12.5312 59.3225 12.5312C61.1834 12.5312 63.6144 12.9698 65.0827 14.2187C66.9435 15.7583 66.7661 17.8128 66.7661 20.0484V25.3299C66.7661 26.9172 67.5083 27.6131 68.2074 28.4712C68.4495 28.7762 68.5032 29.1433 68.1913 29.3721C67.4114 29.9488 66.0238 31.0213 65.2601 31.622L65.2548 31.6124Z" fill="black"/>
<path fill-rule="evenodd" clip-rule="evenodd" d="M11.2675 23.3517C11.2675 24.6721 11.3051 25.7732 10.5522 26.9458C9.94443 27.8991 8.98172 28.4854 7.90606 28.4854C6.43779 28.4854 5.58265 27.494 5.58265 26.0306C5.58265 23.142 8.50305 22.6176 11.2675 22.6176V23.3517ZM15.1237 31.6124C14.8709 31.8126 14.5052 31.8269 14.2202 31.6934C12.9509 30.7592 12.725 30.3254 12.0258 29.434C9.92829 31.3312 8.44389 31.8984 5.72248 31.8984C2.50627 31.8984 0 30.1395 0 26.6169C0 23.8665 1.6834 21.9932 4.07673 21.078C6.15275 20.2676 9.05164 20.1246 11.2675 19.9006V19.4621C11.2675 18.6565 11.3374 17.7031 10.805 17.0072C10.337 16.3828 9.44425 16.1254 8.65902 16.1254C7.20151 16.1254 5.89997 16.7879 5.58265 18.1607C5.51811 18.4658 5.26533 18.7661 4.92112 18.7804L1.21011 18.4277C0.898171 18.3657 0.553961 18.1417 0.640014 17.7174C1.49516 13.7325 5.55576 12.5312 9.19147 12.5312C11.0524 12.5312 13.4833 12.9698 14.9516 14.2187C16.8125 15.7583 16.635 17.8128 16.635 20.0484V25.3299C16.635 26.9172 17.3772 27.6131 18.0764 28.4711C18.3238 28.7762 18.3776 29.1432 18.0656 29.372C17.2858 29.9488 15.8982 31.0213 15.1345 31.6219L15.1237 31.6124Z" fill="black"/>
</g>
</svg>
