<svg width="129" height="49" viewBox="0 0 129 49" fill="none" xmlns="http://www.w3.org/2000/svg">
<g style="mix-blend-mode:luminosity" clip-path="url(#clip0_825_4963)">
<path d="M14.1807 13.6377V22.7254H4.76376V13.6377H0.292969V35.331H4.76376V26.5384H14.1807V35.331H18.6515V13.6377H14.1807Z" fill="#33475B"/>
<path d="M32.9597 28.3182C32.9597 29.1876 32.57 30.0213 31.8764 30.6361C31.1828 31.2509 30.242 31.5962 29.2611 31.5962C28.2801 31.5962 27.3394 31.2509 26.6457 30.6361C25.9521 30.0213 25.5624 29.1876 25.5624 28.3182V19.0266H21.3216V28.3182C21.3216 30.1826 22.1573 31.9707 23.6448 33.289C25.1323 34.6074 27.1498 35.348 29.2534 35.348C31.357 35.348 33.3745 34.6074 34.862 33.289C36.3495 31.9707 37.1852 30.1826 37.1852 28.3182V19.0266H32.9597V28.3182Z" fill="#33475B"/>
<path d="M64.3811 19.9842C64.3811 18.0797 65.8027 17.4759 67.3601 17.4759C68.6153 17.4759 70.2735 18.3223 71.3578 19.3493L74.1353 16.4489C72.7487 14.787 69.9362 13.6377 67.634 13.6377C63.0339 13.6377 59.7066 16.0256 59.7066 19.9842C59.7066 27.3285 69.8354 24.9988 69.8354 29.1088C69.8354 30.3765 68.4466 31.4967 66.8563 31.4967C64.3482 31.4967 63.5356 30.4095 62.3834 29.2602L59.3013 32.1005C61.2728 34.2458 63.7042 35.3349 66.6176 35.3349C70.9876 35.3349 74.5033 32.9178 74.5033 29.1399C74.5033 20.9859 64.3745 23.5195 64.3745 19.9842" fill="#33475B"/>
<path d="M127.042 31.8653C124.536 31.8653 123.824 30.9043 123.824 29.4328V22.9193H127.719V19.6189H123.824V15.2644L119.525 16.9747V30.2423C119.525 33.6359 122.166 35.3463 125.789 35.3463C126.358 35.3555 126.925 35.3152 127.485 35.2259L128.534 31.8032C128.061 31.8323 127.518 31.8615 127.042 31.8615" fill="#33475B"/>
<path d="M49.1025 19.1361C47.0018 19.1361 45.5363 19.6758 44.1191 20.9086V13.7681H39.8717V27.0027C39.8717 31.9572 43.9132 35.3508 48.4541 35.3508C53.4922 35.3508 57.9236 31.897 57.9236 27.2454C57.9236 22.652 53.8449 19.1381 49.1025 19.1381V19.1361ZM49.0762 31.5631C48.1231 31.5631 47.1913 31.3126 46.3988 30.8433C45.6063 30.374 44.9887 29.7069 44.6239 28.9265C44.2592 28.146 44.1638 27.2873 44.3497 26.4587C44.5356 25.6302 44.9946 24.8692 45.6686 24.2719C46.3425 23.6745 47.2012 23.2678 48.136 23.103C49.0708 22.9382 50.0398 23.0227 50.9204 23.346C51.8009 23.6693 52.5536 24.2167 53.0831 24.9191C53.6126 25.6215 53.8952 26.4472 53.8952 27.292C53.8952 28.4248 53.3875 29.5111 52.4838 30.3121C51.58 31.1131 50.3543 31.5631 49.0762 31.5631Z" fill="#33475B"/>
<path d="M95.2208 27.0465C95.2208 22.3871 90.7982 18.9411 85.7513 18.9411C81.2104 18.9411 77.169 22.3347 77.169 27.2892V40.5316H81.4163V33.3813C82.8314 34.6122 84.299 35.1539 86.3975 35.1539C91.1399 35.1539 95.2186 31.6418 95.2186 27.0465H95.2208ZM91.1991 26.9999C91.1991 27.8447 90.9164 28.6705 90.3869 29.3728C89.8574 30.0752 89.1047 30.6226 88.2242 30.9459C87.3436 31.2692 86.3746 31.3538 85.4398 31.189C84.505 31.0242 83.6464 30.6174 82.9724 30.0201C82.2984 29.4227 81.8395 28.6617 81.6535 27.8332C81.4676 27.0047 81.563 26.1459 81.9277 25.3655C82.2925 24.585 82.9102 23.918 83.7027 23.4486C84.4952 22.9793 85.4269 22.7288 86.38 22.7288C87.6581 22.7288 88.8838 23.1788 89.7876 23.9798C90.6913 24.7808 91.1991 25.8672 91.1991 26.9999Z" fill="#33475B"/>
<path d="M108.9 18.8809V15.1379C109.458 14.9068 109.93 14.54 110.262 14.0801C110.594 13.6202 110.772 13.0862 110.775 12.5403V12.4529C110.772 11.6899 110.429 10.9588 109.821 10.4193C109.212 9.87983 108.387 9.57584 107.526 9.57379H107.428C106.567 9.57584 105.742 9.87983 105.133 10.4193C104.525 10.9588 104.182 11.6899 104.179 12.4529V12.5403C104.182 13.0862 104.36 13.6202 104.692 14.0801C105.024 14.54 105.496 14.9068 106.054 15.1379V18.8809C104.45 19.0984 102.938 19.6877 101.673 20.5893L90.0768 12.5927C90.1594 12.3289 90.2036 12.0568 90.2083 11.7831C90.2091 11.1407 89.9951 10.5125 89.5931 9.97798C89.1911 9.44342 88.6194 9.02652 87.9501 8.77998C87.2808 8.53344 86.544 8.46833 85.8329 8.59291C85.1219 8.71748 84.4685 9.02612 83.9554 9.47982C83.4422 9.93351 83.0924 10.5119 82.9502 11.1418C82.8079 11.7717 82.8796 12.4248 83.1562 13.0186C83.4328 13.6124 83.9018 14.1201 84.504 14.4777C85.1061 14.8352 85.8144 15.0264 86.5392 15.0272C87.1759 15.0251 87.8006 14.8744 88.3507 14.5904L99.7522 22.457C98.7253 23.8301 98.1895 25.4459 98.2149 27.0931C98.2403 28.7404 98.8257 30.3425 99.8946 31.6903L96.4249 34.7655C96.1463 34.6869 95.8563 34.645 95.564 34.6413C94.9683 34.6413 94.386 34.7978 93.8907 35.0911C93.3954 35.3845 93.0093 35.8014 92.7814 36.2891C92.5534 36.7769 92.4938 37.3137 92.61 37.8315C92.7262 38.3493 93.013 38.8249 93.4343 39.1983C93.8555 39.5716 94.3922 39.8258 94.9764 39.9288C95.5607 40.0318 96.1663 39.979 96.7166 39.7769C97.267 39.5749 97.7374 39.2327 98.0683 38.7937C98.3993 38.3548 98.5759 37.8387 98.5759 37.3107C98.5719 37.0516 98.5247 36.7945 98.4357 36.5477L101.868 33.5055C102.989 34.2641 104.29 34.7857 105.673 35.0305C107.055 35.2754 108.483 35.237 109.846 34.9184C111.209 34.5997 112.472 34.0092 113.539 33.1919C114.606 32.3747 115.447 31.3522 116 30.2026C116.553 29.053 116.802 27.8067 116.728 26.5588C116.655 25.3108 116.26 24.0943 115.575 23.0021C114.89 21.9099 113.933 20.9708 112.776 20.2565C111.619 19.5423 110.293 19.0718 108.9 18.8809V18.8809ZM107.478 31.1933C106.539 31.1933 105.621 30.9465 104.84 30.484C104.059 30.0215 103.45 29.3641 103.091 28.595C102.731 27.826 102.637 26.9797 102.82 26.1632C103.004 25.3467 103.456 24.5968 104.12 24.0081C104.784 23.4195 105.63 23.0186 106.552 22.8562C107.473 22.6938 108.428 22.7772 109.295 23.0958C110.163 23.4143 110.905 23.9538 111.427 24.646C111.949 25.3381 112.227 26.1519 112.227 26.9843C112.227 28.1006 111.727 29.1712 110.836 29.9605C109.946 30.7499 108.738 31.1933 107.478 31.1933" fill="#FF7A59"/>
</g>
<defs>
<clipPath id="clip0_825_4963">
<rect width="128.626" height="48" fill="white" transform="translate(0.292969 0.53125)"/>
</clipPath>
</defs>
</svg>
