<svg width="126" height="49" viewBox="0 0 126 49" fill="none" xmlns="http://www.w3.org/2000/svg">
<g style="mix-blend-mode:luminosity" clip-path="url(#clip0_825_4965)">
<path d="M17.5012 38.5975C15.6171 38.8908 13.6999 38.9787 11.7166 39.2128L5.66728 23.5098V39.8868C3.78318 40.0625 2.06432 40.2969 0.279297 40.5313V10.5313H5.30389L12.1793 27.553V10.5313H17.5012V38.5975ZM27.9138 21.5176C29.9634 21.5176 33.1036 21.4297 34.9877 21.4297V26.1171C32.6407 26.1171 29.8972 26.1171 27.9138 26.205V33.1778C31.0212 33.002 34.1284 32.7674 37.2685 32.6795V37.191L22.6248 38.2166V10.5313H37.2685V15.2188H27.9138V21.5176V21.5176ZM56.9366 15.2189H51.4494V36.7813C49.6644 36.7813 47.8793 36.7813 46.1607 36.8398V15.2189H40.6736V10.5312H56.9368L56.9366 15.2189V15.2189ZM65.531 21.1954H72.7703V25.8828H65.531V36.5177H60.3409V10.5313H75.1172V15.2188H65.531V21.1954V21.1954ZM83.7116 32.416C86.7197 32.4744 89.7607 32.6799 92.7028 32.8261V37.4551C87.9759 37.1912 83.2489 36.9279 78.4228 36.8398V10.5313H83.7116V32.416ZM97.1652 37.7773C98.851 37.8654 100.636 37.9533 102.355 38.1288V10.5312H97.1652V37.7773V37.7773ZM125.527 10.5313L118.817 24.7989L125.527 40.5313C123.544 40.2969 121.56 39.9746 119.577 39.6816L115.776 31.0099L111.908 38.9787C109.991 38.6855 108.14 38.5975 106.223 38.3632L113.032 24.6229L106.884 10.5313H112.569L116.04 18.4121L119.742 10.5313H125.527V10.5313Z" fill="#D81F26"/>
</g>
<defs>
<clipPath id="clip0_825_4965">
<rect width="125.241" height="48" fill="white" transform="translate(0.279297 0.53125)"/>
</clipPath>
</defs>
</svg>
