<svg width="601" height="516" viewBox="0 0 601 516" fill="none" xmlns="http://www.w3.org/2000/svg">
<g clip-path="url(#clip0_825_4900)">
<path d="M311.536 433.066L329.137 427.881L324.001 445.532L329.137 463.133L311.536 457.997L293.885 463.133L299.07 445.532L293.885 427.881L311.536 433.066Z" fill="black" stroke="white" stroke-miterlimit="10"/>
</g>
<g clip-path="url(#clip1_825_4900)">
<path d="M125.484 346.04L156.96 363.19L125.484 380.478L108.266 411.885L91.0468 380.478L59.5708 363.19L91.0468 346.04L108.266 314.495L125.484 346.04Z" fill="black" stroke="white" stroke-miterlimit="10"/>
</g>
<path d="M565.117 389.864C563.218 393.308 559.679 395.799 554.584 397.345C549.486 398.89 542.874 399.474 534.913 399.131C518.992 398.444 497.791 394.055 472.776 386.399C422.756 371.089 357.594 342.747 289.155 304.997C220.715 267.246 161.982 227.249 122.349 193.106C102.53 176.033 87.5079 160.441 78.4343 147.341C73.8969 140.79 70.8635 134.886 69.4517 129.749C68.0405 124.615 68.2602 120.294 70.1597 116.85C72.0593 113.406 75.5976 110.915 80.693 109.37C85.7907 107.824 92.4028 107.24 100.364 107.584C116.285 108.27 137.486 112.659 162.501 120.315C212.521 135.625 277.683 163.967 346.122 201.718C414.562 239.468 473.295 279.466 512.928 313.608C532.747 330.682 547.769 346.274 556.843 359.373C561.38 365.924 564.414 371.828 565.825 376.965C567.237 382.099 567.017 386.421 565.117 389.864Z" stroke="black"/>
<path d="M544.887 426.538C542.987 429.982 539.449 432.473 534.354 434.018C529.256 435.564 522.644 436.148 514.683 435.805C498.762 435.118 477.56 430.729 452.546 423.073C402.526 407.763 337.364 379.421 268.924 341.67C200.485 303.92 141.752 263.922 102.119 229.78C82.2995 212.706 67.2774 197.114 58.2038 184.015C53.6664 177.464 50.6331 171.56 49.2212 166.423C47.81 161.289 48.0297 156.968 49.9293 153.524C51.8289 150.08 55.3672 147.589 60.4625 146.044C65.5603 144.498 72.1723 143.914 80.1336 144.257C96.0541 144.944 117.256 149.333 142.27 156.989C192.291 172.299 257.452 200.641 325.892 238.392C394.331 276.142 453.064 316.139 492.697 350.282C512.517 367.356 527.539 382.948 536.612 396.047C541.15 402.598 544.183 408.502 545.595 413.639C547.006 418.773 546.786 423.094 544.887 426.538Z" stroke="black"/>
<path d="M524.658 463.212C522.759 466.656 519.22 469.147 514.125 470.692C509.027 472.238 502.415 472.822 494.454 472.478C478.533 471.792 457.332 467.403 432.317 459.747C382.297 444.437 317.135 416.095 248.696 378.344C180.256 340.594 121.523 300.596 81.8905 266.454C62.071 249.38 47.0489 233.788 37.9753 220.689C33.4379 214.138 30.4045 208.234 28.9927 203.097C27.5815 197.963 27.8012 193.641 29.7008 190.198C31.6003 186.754 35.1386 184.263 40.234 182.717C45.3318 181.172 51.9438 180.588 59.9051 180.931C75.8256 181.618 97.0273 186.007 122.042 193.663C172.062 208.973 237.224 237.315 305.663 275.065C374.103 312.816 432.836 352.813 472.469 386.956C492.288 404.029 507.31 419.621 516.384 432.721C520.921 439.272 523.955 445.176 525.366 450.312C526.778 455.447 526.558 459.768 524.658 463.212Z" stroke="black"/>
<circle cx="132.037" cy="105.031" r="15.5" fill="#B9FF66"/>
<circle cx="421.537" cy="435.531" r="10" fill="#B9FF66"/>
<circle cx="82.0371" cy="65.0312" r="23.5" fill="black"/>
<path d="M306.509 384.121C300.205 386.276 293.001 382.006 290.495 374.603L251.496 260.341L274.284 252.546L313.322 366.964C315.828 374.289 312.774 381.967 306.509 384.121Z" fill="black"/>
<path d="M303.102 385.532C301.262 385.532 299.383 385.101 297.581 384.2C293.94 382.398 291.042 379.029 289.633 374.877L250.634 260.615C250.478 260.184 250.713 259.675 251.182 259.519L273.971 251.724C274.206 251.645 274.441 251.645 274.636 251.763C274.832 251.88 274.989 252.037 275.067 252.272L314.105 366.69C316.728 374.446 313.439 382.633 306.744 384.944C305.608 385.336 304.355 385.532 303.102 385.532ZM252.592 260.89L291.317 374.329C292.57 378.05 295.154 381.105 298.364 382.672C300.949 383.926 303.729 384.161 306.235 383.299C312.03 381.301 314.849 374.094 312.5 367.239L273.736 253.643L252.592 260.89Z" fill="black"/>
<path d="M270.251 153.913L196.521 206.52L167.821 236.329L156.544 256.267L156.505 256.423C154.273 259.871 155.565 267.822 159.755 275.931C163.866 283.922 169.661 289.484 173.733 289.797L173.616 289.875L195.268 292.226L235.794 285.763L321.818 254.974L428.751 273.306L429.495 273.345C402.635 268.331 366.377 232.412 340.025 181.607C313.713 130.841 305.334 80.6633 316.885 55.9072H316.845L270.838 152.66L270.251 153.913Z" fill="#B9FF66"/>
<path d="M447.266 271.134C473.694 257.404 468.583 195.16 435.852 132.108C403.121 69.0564 355.163 29.0729 328.736 42.8029C302.308 56.5328 307.419 118.777 340.15 181.829C372.881 244.881 420.839 284.864 447.266 271.134Z" fill="white"/>
<path d="M435.643 274.717C424.131 274.717 410.27 268.293 395.352 255.797C375.031 238.797 355.101 212.591 339.243 181.96C315.241 135.581 305.334 88.0276 314.027 60.8038C316.924 51.7161 321.78 45.3704 328.397 41.9626C341.553 35.2252 360.073 40.9441 380.591 58.101C400.912 75.1012 420.842 101.307 436.7 131.938C460.742 178.317 470.648 225.87 461.916 253.094C459.019 262.182 454.163 268.528 447.546 271.935C443.983 273.816 439.989 274.717 435.643 274.717ZM340.378 40.9441C336.345 40.9441 332.586 41.7667 329.219 43.5294C322.993 46.7023 318.451 52.7346 315.711 61.3914C307.136 88.2235 317.003 135.268 340.809 181.255C373.23 243.811 420.764 283.843 446.802 270.486C453.028 267.313 457.57 261.281 460.311 252.624C468.886 225.792 459.019 178.748 435.212 132.761C406.981 78.3132 367.356 40.9441 340.378 40.9441Z" fill="black"/>
<path d="M435.643 274.717C424.131 274.717 410.27 268.293 395.352 255.797C375.031 238.797 355.101 212.592 339.243 181.96C315.241 135.582 305.334 88.0281 314.027 60.8042C316.924 51.7165 321.78 45.3708 328.397 41.963C337.207 37.4191 348.718 38.5551 361.679 45.2142C374.091 51.599 387.521 62.9195 400.599 77.9219C400.912 78.2745 400.873 78.8229 400.521 79.1362C400.168 79.4496 399.62 79.4104 399.307 79.0579C372.76 48.5829 345.899 34.9514 329.219 43.5298C322.993 46.7027 318.451 52.735 315.711 61.3918C307.136 88.2239 317.003 135.268 340.809 181.255C369.001 235.663 408.665 273.072 435.604 273.072C439.637 273.072 443.396 272.249 446.763 270.486C452.989 267.314 457.531 261.281 460.272 252.625C468.847 225.792 458.98 178.748 435.173 132.761C428.086 119.051 420.098 106.164 411.523 94.4521C411.249 94.0604 411.328 93.512 411.719 93.2378C412.111 92.9636 412.659 93.0419 412.933 93.4336C421.586 105.224 429.574 118.19 436.739 131.978C460.742 178.317 470.648 225.871 461.916 253.095C459.019 262.182 454.163 268.528 447.546 271.936C443.983 273.816 439.989 274.717 435.643 274.717Z" fill="black"/>
<path d="M387.303 190.871C393.426 187.69 392.248 173.282 384.673 158.691C377.098 144.099 365.995 134.848 359.872 138.029C353.75 141.21 354.928 155.617 362.503 170.209C370.077 184.801 381.181 194.051 387.303 190.871Z" fill="#B9FF66"/>
<path d="M384.624 192.38C377.889 192.38 368.492 183.684 361.718 170.561C356.08 159.672 353.77 148.469 355.845 142.006C356.589 139.734 357.803 138.128 359.486 137.266C366.143 133.858 377.537 143.142 385.446 158.379C391.085 169.269 393.395 180.472 391.32 186.935C390.576 189.207 389.362 190.813 387.678 191.675C386.738 192.145 385.72 192.38 384.624 192.38ZM362.54 138.245C361.718 138.245 360.935 138.402 360.269 138.755C358.977 139.42 358.038 140.674 357.45 142.515C355.532 148.547 357.764 159.28 363.206 169.778C370.411 183.684 381.257 193.046 386.856 190.147C388.148 189.481 389.088 188.227 389.675 186.386C391.594 180.315 389.323 169.621 383.919 159.123C377.576 146.941 368.492 138.245 362.54 138.245Z" fill="#B9FF66"/>
<path d="M429.692 260.106C419.59 260.106 407.452 254.465 394.374 243.537C376.597 228.652 359.134 205.698 345.273 178.905C324.247 138.323 315.593 96.6847 323.19 72.8296C325.735 64.8387 330.003 59.2764 335.837 56.2602C349.228 49.4053 368.923 57.3179 389.91 77.961C390.262 78.3135 390.262 78.8227 389.91 79.1753C389.558 79.5278 389.049 79.5278 388.696 79.1753C368.257 59.0806 349.267 51.2464 336.62 57.7879C331.216 60.5691 327.262 65.7788 324.834 73.3388C317.355 96.763 325.97 137.893 346.8 178.121C371.429 225.714 406.081 258.383 429.653 258.383C433.177 258.383 436.426 257.638 439.402 256.15C444.806 253.369 448.76 248.159 451.188 240.599C458.667 217.175 450.052 176.045 429.222 135.817C422.918 123.674 415.87 112.275 408.274 101.973C408 101.581 408.078 101.033 408.47 100.758C408.861 100.484 409.409 100.563 409.683 100.954C417.358 111.374 424.445 122.812 430.788 135.033C451.814 175.614 460.468 217.253 452.872 241.108C450.327 249.099 446.059 254.661 440.224 257.677C437.014 259.283 433.49 260.106 429.692 260.106Z" fill="black"/>
<path d="M195.308 293.049C195.269 293.049 195.23 293.049 195.23 293.049L173.577 290.698C173.46 290.698 173.342 290.659 173.225 290.581C168.761 289.876 163.123 284.235 159.011 276.323C154.626 267.979 153.334 259.832 155.722 255.993L155.762 255.875L167.038 235.898C167.077 235.82 167.117 235.781 167.156 235.741L195.857 205.932C195.896 205.893 195.935 205.854 195.974 205.815L269.508 153.326L316.024 55.5158C316.141 55.3199 316.298 55.1632 316.533 55.0849C316.768 55.0065 317.003 55.0065 317.199 55.124C317.629 55.3199 317.825 55.8291 317.629 56.26C305.844 81.5253 315.163 131.742 340.77 181.176C366.417 230.688 402.165 267.352 429.692 272.405C430.122 272.484 430.436 272.876 430.396 273.346C430.357 273.776 429.966 274.09 429.535 274.129L428.791 274.09C428.752 274.09 428.713 274.09 428.674 274.09L321.936 255.797L236.108 286.507C236.069 286.507 235.991 286.546 235.952 286.546L195.426 293.009C195.387 293.049 195.348 293.049 195.308 293.049ZM174.204 289.053L195.308 291.325L235.638 284.862L321.623 254.113C321.78 254.073 321.897 254.034 322.054 254.073L418.141 270.525C392.181 259.126 361.836 225.479 339.321 181.999C316.964 138.832 306.979 95.0001 312.461 67.3062L271.035 154.266C270.956 154.383 270.878 154.501 270.761 154.579L197.11 207.186L168.526 236.838L157.249 256.815C157.249 256.855 157.21 256.894 157.21 256.894C155.174 260.067 156.545 267.901 160.499 275.539C164.376 283.021 169.975 288.661 173.812 288.936C173.969 288.936 174.086 288.975 174.204 289.053Z" fill="black"/>
<path d="M270.367 153.6L316.845 55.8682H316.884C305.333 80.6242 313.751 130.802 340.025 181.568C366.376 232.412 402.634 268.332 429.573 273.267L428.829 273.228L322.052 254.935L319.586 254.504C307.173 252.311 290.611 236.172 278.747 213.14C266.569 189.52 264.416 165.978 269.819 154.775L270.367 153.6Z" fill="white"/>
<path d="M429.573 274.129C429.573 274.129 429.534 274.129 429.573 274.129L428.79 274.09C428.751 274.09 428.711 274.09 428.672 274.09L321.896 255.797L319.429 255.366C306.312 253.055 289.671 236.251 277.964 213.571C264.69 187.796 264.025 164.842 269.036 154.422L269.624 153.247L316.101 55.5548C316.218 55.359 316.375 55.2023 316.61 55.1239C316.845 55.0456 317.08 55.0456 317.276 55.1631C317.706 55.359 317.902 55.8682 317.706 56.2991C305.921 81.5643 315.24 131.782 340.847 181.215C366.494 230.727 402.243 267.391 429.769 272.445C430.199 272.523 430.513 272.915 430.473 273.385C430.356 273.776 430.004 274.129 429.573 274.129ZM312.381 67.3061L271.151 153.991L270.563 155.167C265.591 165.508 267.04 188.619 279.491 212.748C290.963 234.997 307.134 251.449 319.742 253.642L322.209 254.073L418.1 270.525C392.14 259.126 361.795 225.479 339.281 181.999C316.923 138.832 306.939 95 312.381 67.3061Z" fill="black"/>
<path d="M194.133 292.931C194.094 292.931 194.055 292.931 194.055 292.931L173.538 290.738C173.42 290.738 173.303 290.698 173.185 290.62C168.721 289.915 163.083 284.274 158.972 276.362C154.626 267.979 153.333 259.832 155.722 255.993L155.761 255.875L167.038 235.898C167.273 235.467 167.782 235.35 168.212 235.585C168.643 235.82 168.761 236.329 168.526 236.76L157.249 256.815C157.249 256.855 157.21 256.894 157.21 256.894C155.174 260.067 156.544 267.901 160.499 275.539C164.375 283.021 169.974 288.661 173.812 288.936C173.929 288.936 174.086 288.975 174.164 289.053L194.212 291.208C194.681 291.247 195.034 291.678 194.955 292.148C194.916 292.579 194.564 292.931 194.133 292.931Z" fill="black"/>
<path d="M195.503 292.07C188.847 291.6 179.528 282.159 172.754 269.115C165.589 255.288 163.905 240.991 168.29 235.898L156.583 256.267L156.505 256.424C154.273 259.871 155.565 267.823 159.755 275.931C163.866 283.922 169.661 289.484 173.733 289.798L173.616 289.876L195.503 292.07Z" fill="white"/>
<path d="M195.504 292.931C195.464 292.931 195.464 292.931 195.425 292.931C195.269 292.931 195.073 292.892 194.916 292.892L173.538 290.738C173.42 290.738 173.303 290.699 173.185 290.62C168.721 289.915 163.083 284.275 158.972 276.362C154.626 267.979 153.333 259.832 155.722 255.993L155.761 255.876L166.059 237.935C166.45 236.917 166.959 236.016 167.586 235.272C167.86 234.919 168.369 234.88 168.721 235.115C169.074 235.389 169.191 235.859 168.956 236.251L167.508 238.719C165.197 244.947 167.468 257.168 173.42 268.606C179.881 281.102 188.691 290.229 194.995 291.051L195.464 291.09C195.934 291.129 196.287 291.56 196.248 292.03C196.287 292.579 195.934 292.931 195.504 292.931ZM174.164 289.053L189.121 290.581C183.366 286.899 177.022 279.3 171.971 269.507C167.077 260.067 164.649 250.274 165.041 243.223L157.249 256.816C157.249 256.855 157.21 256.894 157.21 256.894C155.174 260.067 156.544 267.901 160.499 275.539C164.375 283.021 169.974 288.662 173.812 288.936C173.929 288.936 174.086 288.975 174.164 289.053Z" fill="black"/>
<path d="M234.345 285.919L236.068 285.567C226.749 287.525 212.026 273.424 201.65 253.407C191.039 232.96 189.042 212.552 196.56 206.52L195.581 207.499L168.368 235.78C163.905 240.794 165.549 255.17 172.754 269.076C179.684 282.472 189.512 292.03 196.208 291.991L234.345 285.919Z" fill="black"/>
<path d="M196.169 292.892C189.043 292.892 179.137 283.295 171.971 269.507C164.689 255.406 162.848 240.677 167.704 235.232L194.407 207.499C194.877 206.873 195.425 206.324 196.013 205.854C196.365 205.58 196.874 205.619 197.187 205.933C197.501 206.285 197.501 206.794 197.187 207.108L195.66 208.714C190.218 216 192.92 234.645 202.434 253.016C212.693 272.837 227.024 286.429 235.795 284.784L235.912 284.745C236.382 284.666 236.813 284.94 236.93 285.411C237.008 285.881 236.734 286.311 236.264 286.429C236.225 286.429 236.186 286.429 236.147 286.468L234.542 286.782H234.502L196.365 292.853C196.287 292.853 196.209 292.892 196.169 292.892ZM192.136 212.357L168.996 236.408C164.689 241.265 166.646 255.445 173.538 268.724C180.272 281.728 189.787 291.129 196.169 291.169L229.843 285.802C220.759 282.59 209.561 270.486 200.907 253.839C192.685 237.974 189.513 221.836 192.136 212.357Z" fill="black"/>
<path d="M359.878 138.01C353.731 141.143 354.631 155.676 362.462 170.169C375.579 194.416 386.034 191.557 387.248 191.126C387.287 191.126 387.287 191.165 387.248 191.165L364.733 209.301C358.116 200.017 351.812 189.676 346.017 178.513C340.496 167.819 335.837 157.164 332.156 146.823L359.878 138.01Z" fill="black"/>
<path d="M364.733 210.163C364.694 210.163 364.655 210.163 364.616 210.163C364.381 210.124 364.185 210.007 364.028 209.811C357.255 200.292 350.951 189.873 345.273 178.944C339.83 168.446 335.132 157.752 331.373 147.176C331.295 146.941 331.295 146.706 331.412 146.51C331.53 146.315 331.686 146.158 331.921 146.079L359.643 137.266C360.074 137.148 360.544 137.344 360.7 137.775C360.857 138.206 360.7 138.676 360.309 138.872C358.977 139.538 357.998 140.87 357.411 142.828C355.493 148.978 357.842 159.868 363.284 169.856C376.088 193.516 385.955 190.813 387.013 190.421C387.404 190.264 387.874 190.46 388.07 190.813C388.266 191.165 388.187 191.675 387.874 191.949L365.281 209.967C365.125 210.085 364.929 210.163 364.733 210.163ZM333.292 147.372C337.011 157.596 341.553 167.937 346.8 178.121C352.282 188.698 358.39 198.764 364.929 208.048L384.467 192.301C380.004 192.105 371.585 188.776 361.718 170.561C356.002 160.024 353.652 148.9 355.727 142.202C356.002 141.34 356.315 140.596 356.706 139.89L333.292 147.372Z" fill="black"/>
<path d="M475.723 82.1286C493.623 72.7249 500.547 50.6471 491.187 32.8164C481.827 14.9858 459.729 8.15436 441.829 17.5581C423.929 26.9618 417.006 49.0396 426.365 66.8702C435.725 84.7009 457.823 91.5323 475.723 82.1286Z" fill="black"/>
<path d="M442.104 41.7669C443.827 39.4167 446.372 37.9674 449.27 37.654C451.462 37.419 453.498 37.889 455.417 39.0641C456.396 39.6517 457.257 40.396 458.08 41.2969C458.667 40.2393 459.372 39.2992 460.194 38.5158C461.799 36.9489 463.718 36.048 465.872 35.813C468.769 35.4996 471.588 36.3613 473.781 38.2807C475.934 40.1609 477.305 42.9029 477.657 45.9974C478.01 49.1703 477.148 52.2256 474.956 55.5943C472.998 58.6105 470.022 61.7441 466.576 65.4262C465.402 66.6797 464.07 68.0898 462.7 69.5783C462.348 69.9701 461.839 70.2442 461.29 70.2834C460.742 70.3618 460.233 70.2051 459.763 69.8917C458.08 68.7166 456.474 67.6198 455.065 66.6797C450.914 63.8594 447.312 61.4308 444.728 58.9238C441.83 56.1427 440.342 53.3224 439.99 50.1495C439.677 47.055 440.421 44.078 442.104 41.7669Z" fill="white"/>
<path d="M577.272 84.1227C590.377 71.0132 590.377 49.7583 577.272 36.6487C564.168 23.5391 542.922 23.5391 529.817 36.6487C516.713 49.7583 516.713 71.0132 529.817 84.1228C542.922 97.2323 564.168 97.2323 577.272 84.1227Z" fill="#B9FF66"/>
<path d="M553.539 94.804C534.587 94.804 519.121 79.3706 519.121 60.3727C519.121 41.4139 534.548 25.9414 553.539 25.9414C572.529 25.9414 587.956 41.3748 587.956 60.3727C587.956 79.3315 572.529 94.804 553.539 94.804ZM553.539 27.6649C535.527 27.6649 520.844 42.3149 520.844 60.3727C520.844 78.3913 535.488 93.0805 553.539 93.0805C571.55 93.0805 586.233 78.4305 586.233 60.3727C586.233 42.354 571.589 27.6649 553.539 27.6649Z" fill="#B9FF66"/>
<path d="M562.622 63.7016C560.743 63.7016 559.098 64.6025 558.002 66.0127L546.686 61.5864C546.686 61.4297 546.725 61.3122 546.725 61.1555C546.725 60.8813 546.686 60.6071 546.647 60.3329L558.237 54.9665C559.294 56.1808 560.86 56.9642 562.622 57.0034C565.833 57.0034 568.495 54.3789 568.495 51.1277C568.495 47.8765 565.872 45.2129 562.622 45.2129C559.411 45.2129 556.749 47.8373 556.749 51.0885C556.749 51.3627 556.788 51.6369 556.827 51.9111L545.237 57.2776C544.18 56.0633 542.614 55.2798 540.852 55.2407C537.641 55.2407 534.979 57.8651 534.979 61.1163C534.979 64.3675 537.602 67.0311 540.852 67.0311C542.731 67.0311 544.376 66.1302 545.472 64.72L556.788 69.1464C556.788 69.303 556.749 69.4206 556.749 69.5772C556.749 72.8284 559.372 75.4921 562.622 75.4921C565.833 75.4921 568.495 72.8676 568.495 69.6164C568.456 66.3652 565.833 63.7408 562.622 63.7016Z" fill="black"/>
<path d="M563.067 190.523C578.433 179.853 582.294 158.813 571.69 143.529C561.085 128.245 540.032 124.505 524.665 135.175C509.299 145.845 505.438 166.885 516.042 182.169C526.647 197.453 547.7 201.193 563.067 190.523Z" fill="black"/>
<path d="M535.411 178.904L530.478 152.15C530.243 150.779 531.496 149.643 532.827 149.996L561.998 158.261C563.486 158.692 563.838 160.611 562.624 161.551L538.348 180.04C537.291 180.901 535.685 180.314 535.411 178.904Z" fill="white"/>
<path d="M543.535 300.112C562.512 290.87 570.452 268.083 561.271 249.216C552.09 230.349 529.264 222.546 510.287 231.788C491.311 241.03 483.371 263.816 492.552 282.684C501.733 301.551 524.559 309.354 543.535 300.112Z" fill="#B9FF66"/>
<path d="M526.718 304.877C522.646 304.877 518.495 304.251 514.462 302.88C504.595 299.589 496.607 292.695 491.987 283.372C487.367 274.089 486.662 263.552 489.99 253.681C496.881 233.351 519.043 222.266 539.443 229.042C549.31 232.333 557.298 239.227 561.918 248.549C566.539 257.833 567.243 268.37 563.915 278.241C558.355 294.536 543.045 304.877 526.718 304.877ZM527.109 228.807C511.486 228.807 496.842 238.678 491.556 254.268C488.385 263.709 489.05 273.776 493.475 282.628C497.899 291.52 505.535 298.14 514.971 301.274C534.47 307.737 555.653 297.161 562.232 277.732C565.403 268.292 564.737 258.225 560.313 249.372C555.888 240.48 548.253 233.86 538.817 230.727C534.94 229.395 530.986 228.807 527.109 228.807Z" fill="black"/>
<path d="M546.375 259.792C545.983 269.311 529.891 291.56 526.053 296.769C525.662 297.318 524.84 297.279 524.487 296.691C522.06 292.774 514.033 279.613 509.843 268.958C508.16 264.728 507.102 260.889 507.22 258.186C507.651 247.375 516.774 238.953 527.581 239.384C538.387 239.893 546.806 248.981 546.375 259.792Z" fill="black"/>
<path d="M533.13 265.357C536.632 261.854 536.632 256.175 533.13 252.672C529.628 249.169 523.951 249.169 520.45 252.672C516.948 256.175 516.948 261.854 520.45 265.357C523.951 268.86 529.628 268.86 533.13 265.357Z" fill="#B9FF66"/>
<defs>
<clipPath id="clip0_825_4900">
<rect width="36" height="36" fill="white" transform="translate(293.537 427.531)"/>
</clipPath>
<clipPath id="clip1_825_4900">
<rect width="70.3259" height="70.3259" fill="white" transform="translate(108.266 313.531) rotate(45)"/>
</clipPath>
</defs>
</svg>
