<svg width="220" height="57" viewBox="0 0 220 57" fill="none" xmlns="http://www.w3.org/2000/svg">
<g clip-path="url(#clip0_825_4886)">
<g clip-path="url(#clip1_825_4886)">
<path d="M17.9986 16.0665L35.5997 10.8809L30.464 28.5318L35.5997 46.1329L17.9986 40.9972L0.347656 46.1329L5.53325 28.5318L0.347656 10.8809L17.9986 16.0665Z" fill="black"/>
</g>
<path d="M48.9199 41.5313V13.5312H60.0399C61.7466 13.5312 63.2666 13.8779 64.5999 14.5713C65.9599 15.2379 67.0133 16.1979 67.7599 17.4513C68.5333 18.6779 68.9199 20.1579 68.9199 21.8913V22.4113C68.9199 24.1446 68.5199 25.6379 67.7199 26.8913C66.9466 28.1446 65.8933 29.1046 64.5599 29.7713C63.2266 30.4379 61.7199 30.7713 60.0399 30.7713H53.2399V41.5313H48.9199ZM53.2399 26.8513H59.5999C61.1199 26.8513 62.3333 26.4513 63.2399 25.6513C64.1466 24.8513 64.5999 23.7579 64.5999 22.3713V21.9713C64.5999 20.5579 64.1466 19.4513 63.2399 18.6513C62.3333 17.8512 61.1199 17.4513 59.5999 17.4513H53.2399V26.8513Z" fill="black"/>
<path d="M81.8346 42.0913C79.8613 42.0913 78.1013 41.6913 76.5546 40.8913C75.0346 40.0646 73.8346 38.8913 72.9546 37.3713C72.0746 35.8513 71.6346 34.0513 71.6346 31.9713V31.3713C71.6346 29.2913 72.0746 27.5046 72.9546 26.0113C73.8346 24.4913 75.0346 23.3179 76.5546 22.4913C78.1013 21.6646 79.8613 21.2513 81.8346 21.2513C83.8079 21.2513 85.5679 21.6646 87.1146 22.4913C88.6613 23.3179 89.8746 24.4913 90.7546 26.0113C91.6346 27.5046 92.0746 29.2913 92.0746 31.3713V31.9713C92.0746 34.0513 91.6346 35.8513 90.7546 37.3713C89.8746 38.8913 88.6613 40.0646 87.1146 40.8913C85.5679 41.6913 83.8079 42.0913 81.8346 42.0913ZM81.8346 38.4113C83.6479 38.4113 85.1146 37.8379 86.2346 36.6913C87.3813 35.5179 87.9546 33.9046 87.9546 31.8513V31.4913C87.9546 29.4379 87.3946 27.8379 86.2746 26.6913C85.1546 25.5179 83.6746 24.9313 81.8346 24.9313C80.0479 24.9313 78.5813 25.5179 77.4346 26.6913C76.3146 27.8379 75.7546 29.4379 75.7546 31.4913V31.8513C75.7546 33.9046 76.3146 35.5179 77.4346 36.6913C78.5813 37.8379 80.0479 38.4113 81.8346 38.4113Z" fill="black"/>
<path d="M105.284 42.0913C102.777 42.0913 100.697 41.5313 99.044 40.4113C97.3906 39.2913 96.3773 37.5979 96.004 35.3313L99.844 34.4113C100.057 35.5046 100.417 36.3713 100.924 37.0113C101.431 37.6513 102.057 38.1046 102.804 38.3713C103.577 38.6379 104.404 38.7712 105.284 38.7712C106.591 38.7712 107.591 38.5179 108.284 38.0113C109.004 37.5046 109.364 36.8513 109.364 36.0513C109.364 35.2513 109.031 34.6646 108.364 34.2913C107.697 33.9179 106.711 33.6113 105.404 33.3713L104.044 33.1313C102.711 32.8913 101.497 32.5446 100.404 32.0913C99.3107 31.6379 98.444 31.0113 97.804 30.2113C97.164 29.4113 96.844 28.3846 96.844 27.1313C96.844 25.2646 97.5373 23.8246 98.924 22.8113C100.311 21.7713 102.151 21.2513 104.444 21.2513C106.657 21.2513 108.471 21.7579 109.884 22.7713C111.324 23.7579 112.257 25.1046 112.684 26.8113L108.844 27.8913C108.604 26.6913 108.097 25.8513 107.324 25.3713C106.551 24.8646 105.591 24.6113 104.444 24.6113C103.324 24.6113 102.444 24.8246 101.804 25.2513C101.164 25.6513 100.844 26.2246 100.844 26.9713C100.844 27.7713 101.151 28.3579 101.764 28.7313C102.404 29.1046 103.257 29.3846 104.324 29.5713L105.724 29.8113C107.137 30.0513 108.431 30.3846 109.604 30.8113C110.777 31.2379 111.697 31.8513 112.364 32.6513C113.057 33.4513 113.404 34.5179 113.404 35.8513C113.404 37.8246 112.671 39.3579 111.204 40.4513C109.737 41.5446 107.764 42.0913 105.284 42.0913Z" fill="black"/>
<path d="M118.22 41.5313V21.8113H122.34V41.5313H118.22ZM120.3 19.1313C119.5 19.1313 118.82 18.8779 118.26 18.3713C117.726 17.8379 117.46 17.1579 117.46 16.3312C117.46 15.5046 117.726 14.8379 118.26 14.3313C118.82 13.7979 119.5 13.5312 120.3 13.5312C121.126 13.5312 121.806 13.7979 122.34 14.3313C122.873 14.8379 123.14 15.5046 123.14 16.3312C123.14 17.1579 122.873 17.8379 122.34 18.3713C121.806 18.8779 121.126 19.1313 120.3 19.1313Z" fill="black"/>
<path d="M135.854 41.5313C134.654 41.5313 133.694 41.1713 132.974 40.4513C132.281 39.7313 131.934 38.7713 131.934 37.5713V25.2913H126.494V21.8113H131.934V15.2913H136.054V21.8113H141.934V25.2913H136.054V36.8513C136.054 37.6513 136.427 38.0513 137.174 38.0513H141.294V41.5313H135.854Z" fill="black"/>
<path d="M146.774 41.5313V21.8113H150.894V41.5313H146.774ZM148.854 19.1313C148.054 19.1313 147.374 18.8779 146.814 18.3713C146.281 17.8379 146.014 17.1579 146.014 16.3312C146.014 15.5046 146.281 14.8379 146.814 14.3313C147.374 13.7979 148.054 13.5312 148.854 13.5312C149.681 13.5312 150.361 13.7979 150.894 14.3313C151.428 14.8379 151.694 15.5046 151.694 16.3312C151.694 17.1579 151.428 17.8379 150.894 18.3713C150.361 18.8779 149.681 19.1313 148.854 19.1313Z" fill="black"/>
<path d="M161.569 41.5313L154.929 21.8113H159.289L164.529 38.4913H165.169L170.409 21.8113H174.769L168.129 41.5313H161.569Z" fill="black"/>
<path d="M186.326 41.8913C184.833 41.8913 183.5 41.5579 182.326 40.8913C181.153 40.2246 180.233 39.2779 179.566 38.0513C178.9 36.8246 178.566 35.3579 178.566 33.6513V21.8113H182.686V33.3713C182.686 35.0779 183.113 36.3446 183.966 37.1713C184.82 37.9713 186.006 38.3713 187.526 38.3713C189.206 38.3713 190.553 37.8113 191.566 36.6913C192.606 35.5446 193.126 33.9046 193.126 31.7713V21.8113H197.246V41.5313H193.206V38.5713H192.566C192.193 39.3713 191.526 40.1313 190.566 40.8513C189.606 41.5446 188.193 41.8913 186.326 41.8913Z" fill="black"/>
<path d="M211.417 42.0913C208.91 42.0913 206.83 41.5313 205.177 40.4113C203.523 39.2913 202.51 37.5979 202.137 35.3313L205.977 34.4113C206.19 35.5046 206.55 36.3713 207.057 37.0113C207.563 37.6513 208.19 38.1046 208.937 38.3713C209.71 38.6379 210.537 38.7712 211.417 38.7712C212.723 38.7712 213.723 38.5179 214.417 38.0113C215.137 37.5046 215.497 36.8513 215.497 36.0513C215.497 35.2513 215.163 34.6646 214.497 34.2913C213.83 33.9179 212.843 33.6113 211.537 33.3713L210.177 33.1313C208.843 32.8913 207.63 32.5446 206.537 32.0913C205.443 31.6379 204.577 31.0113 203.937 30.2113C203.297 29.4113 202.977 28.3846 202.977 27.1313C202.977 25.2646 203.67 23.8246 205.057 22.8113C206.443 21.7713 208.283 21.2513 210.577 21.2513C212.79 21.2513 214.603 21.7579 216.017 22.7713C217.457 23.7579 218.39 25.1046 218.817 26.8113L214.977 27.8913C214.737 26.6913 214.23 25.8513 213.457 25.3713C212.683 24.8646 211.723 24.6113 210.577 24.6113C209.457 24.6113 208.577 24.8246 207.937 25.2513C207.297 25.6513 206.977 26.2246 206.977 26.9713C206.977 27.7713 207.283 28.3579 207.897 28.7313C208.537 29.1046 209.39 29.3846 210.457 29.5713L211.857 29.8113C213.27 30.0513 214.563 30.3846 215.737 30.8113C216.91 31.2379 217.83 31.8513 218.497 32.6513C219.19 33.4513 219.537 34.5179 219.537 35.8513C219.537 37.8246 218.803 39.3579 217.337 40.4513C215.87 41.5446 213.897 42.0913 211.417 42.0913Z" fill="black"/>
</g>
<defs>
<clipPath id="clip0_825_4886">
<rect width="219.537" height="56" fill="white" transform="translate(0 0.53125)"/>
</clipPath>
<clipPath id="clip1_825_4886">
<rect width="36" height="36" fill="white" transform="translate(0 10.5312)"/>
</clipPath>
</defs>
</svg>
