<svg width="359" height="395" viewBox="0 0 359 395" fill="none" xmlns="http://www.w3.org/2000/svg">
<path d="M337.5 199.031C337.5 201.309 336.403 203.584 334.208 205.837C332.012 208.092 328.746 210.291 324.497 212.402C316 216.621 303.672 220.436 288.398 223.644C257.858 230.059 215.644 234.031 169 234.031C122.356 234.031 80.1418 230.059 49.6017 223.644C34.3276 220.436 22.0001 216.621 13.5033 212.402C9.25393 210.291 5.98843 208.092 3.79163 205.837C1.5966 203.584 0.5 201.309 0.5 199.031C0.5 196.753 1.5966 194.479 3.79163 192.226C5.98843 189.971 9.25393 187.771 13.5033 185.661C22.0001 181.441 34.3276 177.627 49.6017 174.418C80.1418 168.003 122.356 164.031 169 164.031C215.644 164.031 257.858 168.003 288.398 174.418C303.672 177.627 316 181.441 324.497 185.661C328.746 187.771 332.012 189.971 334.208 192.226C336.403 194.479 337.5 196.753 337.5 199.031Z" stroke="black"/>
<path d="M337.5 224.031C337.5 226.309 336.403 228.584 334.208 230.837C332.012 233.092 328.746 235.291 324.497 237.402C316 241.621 303.672 245.436 288.398 248.644C257.858 255.059 215.644 259.031 169 259.031C122.356 259.031 80.1418 255.059 49.6017 248.644C34.3276 245.436 22.0001 241.621 13.5033 237.402C9.25393 235.291 5.98843 233.092 3.79163 230.837C1.5966 228.584 0.5 226.309 0.5 224.031C0.5 221.753 1.5966 219.479 3.79163 217.226C5.98843 214.971 9.25393 212.771 13.5033 210.661C22.0001 206.441 34.3276 202.627 49.6017 199.418C80.1418 193.003 122.356 189.031 169 189.031C215.644 189.031 257.858 193.003 288.398 199.418C303.672 202.627 316 206.441 324.497 210.661C328.746 212.771 332.012 214.971 334.208 217.226C336.403 219.479 337.5 221.753 337.5 224.031Z" stroke="black"/>
<path d="M337.5 249.031C337.5 251.309 336.403 253.584 334.208 255.837C332.012 258.092 328.746 260.291 324.497 262.402C316 266.621 303.672 270.436 288.398 273.644C257.858 280.059 215.644 284.031 169 284.031C122.356 284.031 80.1418 280.059 49.6017 273.644C34.3276 270.436 22.0001 266.621 13.5033 262.402C9.25393 260.291 5.98843 258.092 3.79163 255.837C1.5966 253.584 0.5 251.309 0.5 249.031C0.5 246.753 1.5966 244.479 3.79163 242.226C5.98843 239.971 9.25393 237.771 13.5033 235.661C22.0001 231.441 34.3276 227.627 49.6017 224.418C80.1418 218.003 122.356 214.031 169 214.031C215.644 214.031 257.858 218.003 288.398 224.418C303.672 227.627 316 231.441 324.497 235.661C328.746 237.771 332.012 239.971 334.208 242.226C336.403 244.479 337.5 246.753 337.5 249.031Z" stroke="black"/>
<path d="M252.343 67.1605L252.511 68.0659L253.179 67.4321L300.311 22.7082L272.341 81.3543L271.945 82.1854L272.858 82.0653L337.276 73.5867L280.177 104.592L279.368 105.031L280.177 105.471L337.276 136.476L272.858 127.997L271.945 127.877L272.341 128.708L300.311 187.354L253.179 142.63L252.511 141.997L252.343 142.902L240.5 206.788L228.657 142.902L228.489 141.997L227.821 142.63L180.689 187.354L208.659 128.708L209.055 127.877L208.142 127.997L143.724 136.476L200.823 105.471L201.632 105.031L200.823 104.592L143.724 73.5867L208.142 82.0653L209.055 82.1854L208.659 81.3543L180.689 22.7083L227.821 67.4321L228.489 68.0659L228.657 67.1605L240.5 3.27442L252.343 67.1605Z" stroke="black"/>
<path d="M277 177.531L294.789 222.592L341.11 208.405L316.972 250.408L356.944 277.778L309.055 285.094L312.578 333.411L277 300.531L241.422 333.411L244.945 285.094L197.056 277.778L237.028 250.408L212.89 208.405L259.211 222.592L277 177.531Z" fill="#D9D9D9"/>
<path d="M112.194 306.634L135.134 264.532L158.258 306.634L200.269 329.666L158.258 352.698L135.134 394.8L112.194 352.698L70 329.666L112.194 306.634Z" fill="#B9FF66"/>
<circle cx="152.5" cy="187.031" r="62" fill="black" stroke="black"/>
<ellipse cx="132" cy="173.531" rx="10" ry="20" fill="white"/>
<ellipse cx="173" cy="173.531" rx="10" ry="20" fill="white"/>
</svg>
